# xmcd CD database file
#
# Track frame offsets:
#	150
#	26090
#	52015
#	79795
#	106805
#	131670
#	156163
#	175760
#	203448
#	230220
#	256728
#	287808
#
# Disc length: 4269 seconds
#
# Revision: 7
# Processed by: cddbd v1.5.2PL0 Copyright (c) Steve Scherf et al.
# Submitted via: CDex 1.70beta3
#
DISCID=a010ab0c
DTITLE=Various Artist - Maharaja Night 1
DYEAR=1992
DGENRE=Eurobeat
TTITLE0=Edo - You Really Got Me (Dance Mix)
TTITLE1=High Frequency - Hot Summer Nights (Extended Mix)
TTITLE2=David Essex - Victim Of Love (Extended Version)
TTITLE3=Norma Sheffield - Look Me In The Eyes (Club Mix)
TTITLE4=Sophie - Treat Me Right (Extended Mix)
TTITLE5=Queen Of Times - Waste My Time (Extended Mix)
TTITLE6=King and Queen - King And Queen (Friday Night Version)
TTITLE7=Domino - Forever Young (Forever Mix)
TTITLE8=Lou Grant - Funky Lady (Extended Mix)
TTITLE9=Valentina - Do You Know
TTITLE10=Gino Caria - Hold The Line (Fashion Mix)
TTITLE11=Vanessa - Open Up Your Eyes (Extended Mix)
EXTD=YEAR: 1992
EXTT0=
EXTT1=
EXTT2=
EXTT3=
EXTT4=
EXTT5=
EXTT6=
EXTT7=
EXTT8=
EXTT9=
EXTT10=
EXTT11=
PLAYORDER=
